<?xml version="1.0" encoding="UTF-8"?>
<svg width="211px" height="46px" viewBox="0 0 211 46" version="1.1" xmlns="http://www.w3.org/2000/svg" xmlns:xlink="http://www.w3.org/1999/xlink">
    <title>49276B18-9CD0-4291-998A-FB86402A44D5</title>
    <g id="Home" stroke="none" stroke-width="1" fill="none" fill-rule="evenodd">
        <g id="Dashboard" transform="translate(-30.000000, -15.000000)" fill="#303B7E" fill-rule="nonzero">
            <g id="CTB-Biosample" transform="translate(30.000000, 15.000000)">
                <path d="M8.12827072,46 C9.20667743,46 10.0600447,45.7711864 10.6883726,45.3135593 C11.3167005,44.8559322 11.6308644,44.2288136 11.6308644,43.4322034 C11.6308644,42.9491525 11.4994058,42.5487288 11.2364884,42.2309322 C10.9735711,41.9131356 10.6594071,41.6652542 10.2939966,41.4872881 C9.92858606,41.309322 9.44731364,41.1144068 8.85017934,40.9025424 C8.38673183,40.7415254 8.02132129,40.6016949 7.75394772,40.4830508 C7.48657416,40.3644068 7.26599097,40.2161017 7.09219815,40.0381356 C6.91840533,39.8601695 6.83150892,39.6440678 6.83150892,39.3898305 C6.83150892,38.9661017 6.99638929,38.6440678 7.32615002,38.4237288 C7.65591075,38.2033898 8.08370845,38.0932203 8.60954313,38.0932203 C9.38492647,38.0932203 10.1469411,38.3177966 10.8955871,38.7669492 L10.8955871,38.7669492 L11.3367535,37.75 C10.5346328,37.25 9.612194,37 8.5694371,37 C7.60689226,37 6.8270527,37.2139831 6.2299184,37.6419492 C5.6327841,38.0699153 5.33421696,38.6779661 5.33421696,39.4661017 C5.33421696,39.940678 5.46344751,40.3347458 5.72190863,40.6483051 C5.98036974,40.9618644 6.29230557,41.2055085 6.65771611,41.3792373 C7.02312665,41.5529661 7.49548661,41.7372881 8.074796,41.9322034 C8.53824352,42.0932203 8.90588217,42.2351695 9.17771196,42.3580508 C9.44954175,42.4809322 9.67680928,42.6355932 9.85951455,42.8220339 C10.0422198,43.0084746 10.1335725,43.2372881 10.1335725,43.5084746 C10.1335725,43.9491525 9.94418285,44.2923729 9.56540363,44.5381356 C9.18662441,44.7838983 8.70758011,44.9067797 8.12827072,44.9067797 C7.13898852,44.9067797 6.23883085,44.6737288 5.4277977,44.2076271 L5.4277977,44.2076271 L5,45.2372881 C5.84668296,45.7457627 6.88943986,46 8.12827072,46 Z M25.1889325,45.809322 L25.1889325,44.7542373 L20.9911675,44.7542373 L20.9911675,41.7669492 L24.3868118,41.7669492 L24.3868118,40.7118644 L20.9911675,40.7118644 L20.9911675,38.220339 L24.9215589,38.220339 L24.9215589,37.1652542 L19.4671382,37.1652542 L19.4671382,45.809322 L25.1889325,45.809322 Z M33.3995292,45.809322 L34.3487054,43.2923729 L37.8512991,43.2923729 L38.8004753,45.809322 L40.3646106,45.809322 L36.8219109,37.0508475 L35.3914623,37.0508475 L31.8754999,45.809322 L33.3995292,45.809322 Z M37.4636074,42.25 L34.7363971,42.25 L36.1000022,38.6271186 L37.4636074,42.25 Z M49.2436413,45.809322 L49.2436413,42.1610169 L50.8077766,42.1610169 L53.4280376,45.809322 L55.1927031,45.809322 L52.3451746,41.9322034 C52.9690463,41.779661 53.43695,41.5063559 53.7488859,41.1122881 C54.0608217,40.7182203 54.2167896,40.2118644 54.2167896,39.5932203 C54.2167896,38.8220339 53.9405036,38.2245763 53.3879315,37.8008475 C52.8353595,37.3771186 52.0109577,37.1652542 50.9147261,37.1652542 L50.9147261,37.1652542 L47.719612,37.1652542 L47.719612,45.809322 L49.2436413,45.809322 Z M50.9147261,41.1059322 L49.2436413,41.1059322 L49.2436413,38.220339 L50.9147261,38.220339 C51.5029479,38.220339 51.9463424,38.3432203 52.2449095,38.5889831 C52.5434767,38.8347458 52.6927603,39.190678 52.6927603,39.6567797 C52.6927603,40.6228814 52.1000822,41.1059322 50.9147261,41.1059322 L50.9147261,41.1059322 Z M66.7588381,45.9872881 C67.4005347,45.9872881 67.9932127,45.8813559 68.5368723,45.6694915 C69.0805319,45.4576271 69.5528919,45.1822034 69.9539522,44.8432203 L69.9539522,44.8432203 L69.4994172,43.8771186 C68.7062089,44.5635593 67.7926826,44.9067797 66.7588381,44.9067797 C66.0814917,44.9067797 65.5044105,44.7584746 65.0275943,44.4618644 C64.5507781,44.1652542 64.1898238,43.7584746 63.9447313,43.2415254 C63.6996389,42.7245763 63.5770927,42.1398305 63.5770927,41.4872881 C63.5770927,40.8432203 63.7063232,40.2648305 63.9647843,39.7521186 C64.2232455,39.2394068 64.6042528,38.8347458 65.1078063,38.5381356 C65.6113599,38.2415254 66.2151785,38.0932203 66.9192622,38.0932203 C67.4005347,38.0932203 67.8550697,38.1694915 68.2828674,38.3220339 C68.7106651,38.4745763 69.0671632,38.6737288 69.3523617,38.9194915 L69.3523617,38.9194915 L69.8470028,37.9279661 C69.4905047,37.6398305 69.0560227,37.4131356 68.5435567,37.2478814 C68.0310907,37.0826271 67.4896592,37 66.9192622,37 C65.8765053,37 64.9874882,37.2033898 64.2522109,37.6101695 C63.5169336,38.0169492 62.9665897,38.5614407 62.6011792,39.2436441 C62.2357686,39.9258475 62.0530634,40.6694915 62.0530634,41.4745763 C62.0530634,42.2881356 62.2290843,43.0381356 62.5811261,43.7245763 C62.933168,44.4110169 63.4612308,44.9597458 64.1653145,45.3707627 C64.8693982,45.7817797 65.7339061,45.9872881 66.7588381,45.9872881 Z M79.2474119,45.809322 L79.2474119,41.7669492 L83.8596059,41.7669492 L83.8596059,45.809322 L85.3836352,45.809322 L85.3836352,37.1652542 L83.8596059,37.1652542 L83.8596059,40.6991525 L79.2474119,40.6991525 L79.2474119,37.1652542 L77.7233826,37.1652542 L77.7233826,45.809322 L79.2474119,45.809322 Z M104.558776,45.809322 L104.558776,42.0720339 L107.954421,42.0720339 L107.954421,41.0042373 L104.558776,41.0042373 L104.558776,38.2330508 L108.489168,38.2330508 L108.489168,37.1652542 L103.034747,37.1652542 L103.034747,45.809322 L104.558776,45.809322 Z M116.298704,45.809322 L117.24788,43.2923729 L120.750474,43.2923729 L121.69965,45.809322 L123.263786,45.809322 L119.721086,37.0508475 L118.290637,37.0508475 L114.774675,45.809322 L116.298704,45.809322 Z M120.362782,42.25 L117.635572,42.25 L118.999177,38.6271186 L120.362782,42.25 Z M134.616022,45.9872881 C135.257718,45.9872881 135.850396,45.8813559 136.394056,45.6694915 C136.937716,45.4576271 137.410076,45.1822034 137.811136,44.8432203 L137.811136,44.8432203 L137.356601,43.8771186 C136.563393,44.5635593 135.649866,44.9067797 134.616022,44.9067797 C133.938675,44.9067797 133.361594,44.7584746 132.884778,44.4618644 C132.407962,44.1652542 132.047007,43.7584746 131.801915,43.2415254 C131.556823,42.7245763 131.434276,42.1398305 131.434276,41.4872881 C131.434276,40.8432203 131.563507,40.2648305 131.821968,39.7521186 C132.080429,39.2394068 132.461436,38.8347458 132.96499,38.5381356 C133.468544,38.2415254 134.072362,38.0932203 134.776446,38.0932203 C135.257718,38.0932203 135.712253,38.1694915 136.140051,38.3220339 C136.567849,38.4745763 136.924347,38.6737288 137.209545,38.9194915 L137.209545,38.9194915 L137.704186,37.9279661 C137.347688,37.6398305 136.913206,37.4131356 136.40074,37.2478814 C135.888274,37.0826271 135.346843,37 134.776446,37 C133.733689,37 132.844672,37.2033898 132.109395,37.6101695 C131.374117,38.0169492 130.823773,38.5614407 130.458363,39.2436441 C130.092952,39.9258475 129.910247,40.6694915 129.910247,41.4745763 C129.910247,42.2881356 130.086268,43.0381356 130.43831,43.7245763 C130.790352,44.4110169 131.318414,44.9597458 132.022498,45.3707627 C132.726582,45.7817797 133.59109,45.9872881 134.616022,45.9872881 Z M147.104596,45.809322 L147.104596,37.1652542 L145.580566,37.1652542 L145.580566,45.809322 L147.104596,45.809322 Z M161.397941,45.809322 L161.397941,44.7542373 L157.200176,44.7542373 L157.200176,37.1652542 L155.676147,37.1652542 L155.676147,45.809322 L161.397941,45.809322 Z M170.424027,45.809322 L170.424027,37.1652542 L168.899998,37.1652542 L168.899998,45.809322 L170.424027,45.809322 Z M182.41796,45.809322 L182.41796,38.2330508 L185.3457,38.2330508 L185.3457,37.1652542 L177.992927,37.1652542 L177.992927,38.2330508 L180.89393,38.2330508 L180.89393,45.809322 L182.41796,45.809322 Z M196.644462,45.809322 L196.644462,42.2881356 L200,37.1652542 L198.38239,37.1652542 L195.882447,41.220339 L193.409242,37.1652542 L191.764894,37.1652542 L195.120432,42.3262712 L195.120432,45.809322 L196.644462,45.809322 Z" id="SEARCHFACILITY"></path>
                <path d="M12.2765318,26.7397521 C13.522444,26.7397521 14.7576156,26.5993009 15.9820466,26.3183985 C17.2064776,26.037496 18.2590586,25.6701621 19.1397897,25.2163966 L19.1397897,25.2163966 L18.0442461,21.2297426 C15.9820466,22.1156657 14.0594751,22.5586273 12.2765318,22.5586273 C10.1928509,22.5586273 8.59249816,21.883381 7.4754734,20.5328885 C6.35844864,19.1823959 5.79993626,17.4483635 5.79993626,15.3307912 C5.79993626,13.9911026 6.06308152,12.7756594 6.58937203,11.6844614 C7.11566254,10.5932634 7.88898738,9.7289482 8.90934653,9.09151573 C9.92970569,8.45408325 11.1380257,8.13536702 12.5343067,8.13536702 C13.6298502,8.13536702 14.6072469,8.25961233 15.4664967,8.50810296 C16.3257465,8.75659358 17.1527745,9.08611376 17.9475805,9.49666349 L17.9475805,9.49666349 L19.1075678,5.41277407 C17.2172182,4.44041945 15.0261312,3.95424214 12.5343067,3.95424214 C9.87063226,3.95424214 7.59362025,4.47283127 5.70327066,5.51000953 C3.81292106,6.5471878 2.38978855,7.93009215 1.43387313,9.65872259 C0.47795771,11.387353 0,13.2672386 0,15.2983794 C0,17.3511281 0.456476465,19.2472196 1.36942939,20.986654 C2.28238232,22.7260883 3.66255234,24.1197966 5.50993945,25.1677788 C7.35732655,26.215761 9.61285732,26.7397521 12.2765318,26.7397521 Z M31.599846,26.3508103 L31.599846,8.4270734 L37.5608916,8.4270734 L37.5608916,4.31077216 L19.8388641,4.31077216 L19.8388641,8.4270734 L25.7999097,8.4270734 L25.7999097,26.3508103 L31.599846,26.3508103 Z M48.5387419,26.3508103 C51.61056,26.3508103 53.9359048,25.853829 55.5147764,24.8598665 C57.0936479,23.865904 57.8830837,22.3749603 57.8830837,20.3870353 C57.8830837,18.9393073 57.4373478,17.7076581 56.5458762,16.6920877 C55.6544045,15.6765173 54.3601594,15.006673 52.6631411,14.6825548 C54.0379408,14.3368287 55.0905218,13.7210041 55.8208841,12.835081 C56.5512465,11.9491579 56.9164276,10.9011757 56.9164276,9.69113441 C56.9164276,7.81124881 56.2182872,6.44455037 54.8220062,5.59103908 C53.4257253,4.7375278 51.3313038,4.31077216 48.5387419,4.31077216 L48.5387419,4.31077216 L39.7743938,4.31077216 L39.7743938,26.3508103 L48.5387419,26.3508103 Z M48.5387419,12.6730219 L45.5743301,12.6730219 L45.5743301,8.36224976 L48.5387419,8.36224976 C49.3979917,8.36224976 50.0424291,8.51350493 50.472054,8.81601525 C50.9016789,9.11852558 51.1164914,9.65872259 51.1164914,10.4366063 C51.1164914,11.92755 50.2572416,12.6730219 48.5387419,12.6730219 L48.5387419,12.6730219 Z M48.5387419,22.2993327 L45.5743301,22.2993327 L45.5743301,16.7244995 L48.5387419,16.7244995 C49.6987292,16.7244995 50.5794602,16.9459803 51.1809351,17.3889418 C51.78241,17.8319034 52.0831474,18.5395615 52.0831474,19.5119161 C52.0831474,20.4842707 51.78241,21.1919288 51.1809351,21.6348904 C50.5794602,22.0778519 49.6987292,22.2993327 48.5387419,22.2993327 L48.5387419,22.2993327 Z M75.4888322,26.3508103 C78.0451004,26.3508103 80.0052641,25.7998093 81.3693232,24.6978074 C82.7333822,23.5958055 83.4154118,22.1156657 83.4154118,20.257388 C83.4154118,18.8528758 83.0126384,17.6590404 82.2070917,16.6758818 C81.401545,15.6927232 80.2361875,15.0390848 78.711019,14.7149666 C79.9139688,14.3908484 80.8376623,13.7966317 81.4820997,12.9323165 C82.1265371,12.0680013 82.4487557,11.0632348 82.4487557,9.91801716 C82.4487557,8.14617096 81.8526512,6.76866857 80.6604421,5.78551001 C79.4682329,4.80235145 77.744363,4.31077216 75.4888322,4.31077216 L75.4888322,4.31077216 L68.1422463,4.31077216 L68.1422463,26.3508103 L75.4888322,26.3508103 Z M75.4888322,13.6453765 L71.1066582,13.6453765 L71.1066582,6.5471878 L75.4888322,6.5471878 C76.777707,6.5471878 77.7658442,6.84429616 78.4532441,7.43851287 C79.140644,8.03272958 79.4843439,8.92405466 79.4843439,10.1124881 C79.4843439,11.21449 79.1352736,12.0788052 78.4371332,12.7054337 C77.7389927,13.3320623 76.7562257,13.6453765 75.4888322,13.6453765 L75.4888322,13.6453765 Z M75.4888322,24.1143947 L71.1066582,24.1143947 L71.1066582,15.8817922 L75.4888322,15.8817922 C77.0999256,15.8817922 78.3297269,16.2221163 79.1782361,16.9027645 C80.0267453,17.5834128 80.4509999,18.6151891 80.4509999,19.9980934 C80.4509999,21.2945663 80.021375,22.3047347 79.1621252,23.0285987 C78.3028754,23.7524627 77.0784444,24.1143947 75.4888322,24.1143947 L75.4888322,24.1143947 Z M88.2711072,3.69494757 C88.7866571,3.69494757 89.2270226,3.51668255 89.5922038,3.16015253 C89.957385,2.8036225 90.1399756,2.37686686 90.1399756,1.87988561 C90.1399756,1.36129647 89.957385,0.918334922 89.5922038,0.551000953 C89.2270226,0.183666984 88.7866571,0 88.2711072,0 C87.7770386,0 87.3474137,0.183666984 86.9822325,0.551000953 C86.6170513,0.918334922 86.4344607,1.36129647 86.4344607,1.87988561 C86.4344607,2.37686686 86.6170513,2.8036225 86.9822325,3.16015253 C87.3474137,3.51668255 87.7770386,3.69494757 88.2711072,3.69494757 Z M89.7210913,26.3508103 L89.7210913,9.042898 L86.853345,9.042898 L86.853345,26.3508103 L89.7210913,26.3508103 Z M101.440045,26.9342231 C103.222988,26.9342231 104.737416,26.5128694 105.983328,25.6701621 C107.22924,24.8274547 108.158304,23.7038449 108.77052,22.2993327 C109.382735,20.8948205 109.688843,19.349857 109.688843,17.6644423 C109.688843,16.0006355 109.382735,14.471878 108.77052,13.0781697 C108.158304,11.6844614 107.22924,10.5662536 105.983328,9.72354623 C104.737416,8.88083889 103.222988,8.45948522 101.440045,8.45948522 C99.63562,8.45948522 98.1104516,8.87003495 96.8645393,9.69113441 C95.6186271,10.5122339 94.6895632,11.6250397 94.0773478,13.029552 C93.4651323,14.4340642 93.1590245,16.0006355 93.1590245,17.729266 C93.1590245,19.4362885 93.4651323,20.986654 94.0773478,22.3803622 C94.6895632,23.7740705 95.6186271,24.8814744 96.8645393,25.7025739 C98.1104516,26.5236733 99.63562,26.9342231 101.440045,26.9342231 Z M101.407823,24.6978074 C99.6893231,24.6978074 98.3735968,24.0657769 97.4606439,22.8017159 C96.547691,21.5376549 96.0912145,19.8360343 96.0912145,17.6968541 C96.0912145,15.5792819 96.547691,13.8830632 97.4606439,12.6081983 C98.3735968,11.3333333 99.6893231,10.6959009 101.407823,10.6959009 C103.126322,10.6959009 104.447419,11.3333333 105.371113,12.6081983 C106.294806,13.8830632 106.756653,15.5792819 106.756653,17.6968541 C106.756653,19.8360343 106.294806,21.5376549 105.371113,22.8017159 C104.447419,24.0657769 103.126322,24.6978074 101.407823,24.6978074 Z M117.476728,26.9342231 C119.474484,26.9342231 121.074837,26.4534477 122.277787,25.491897 C123.480736,24.5303464 124.082211,23.2392755 124.082211,21.6186845 C124.082211,20.5815062 123.829807,19.7279949 123.324997,19.0581506 C122.820188,18.3883063 122.213343,17.8697172 121.504462,17.5023832 C120.795581,17.1350493 119.871887,16.7461074 118.733381,16.3355577 C117.423025,15.8817922 116.445629,15.4388306 115.801191,15.006673 C115.156754,14.5745154 114.834535,13.9694948 114.834535,13.1916111 C114.834535,12.3489037 115.135273,11.7222752 115.736747,11.3117255 C116.338222,10.9011757 117.133028,10.6959009 118.121166,10.6959009 C119.796703,10.6959009 121.321871,11.1820782 122.696671,12.1544328 L122.696671,12.1544328 L123.534439,10.0476644 C121.944827,8.9888783 120.118921,8.45948522 118.056722,8.45948522 C116.273779,8.45948522 114.818424,8.88624086 113.690659,9.73975214 C112.562893,10.5932634 111.999011,11.8195106 111.999011,13.4184938 C111.999011,14.4124563 112.246045,15.2281538 112.740114,15.8655863 C113.234182,16.5030187 113.835657,17 114.544538,17.35653 C115.253419,17.7130601 116.177113,18.0965999 117.315619,18.5071497 C118.239312,18.8528758 118.953564,19.1499841 119.458373,19.3984747 C119.963182,19.6469654 120.387437,19.9602796 120.731137,20.3384175 C121.074837,20.7165554 121.246687,21.1757229 121.246687,21.7159199 C121.246687,22.6666667 120.897617,23.4013346 120.199476,23.9199237 C119.501336,24.4385129 118.593753,24.6978074 117.476728,24.6978074 C115.43601,24.6978074 113.696029,24.1900222 112.256786,23.1744519 L112.256786,23.1744519 L111.386795,25.2812202 C112.224564,25.8214172 113.126776,26.231967 114.093432,26.5128694 C115.060088,26.7937718 116.187854,26.9342231 117.476728,26.9342231 Z M130.420113,26.8045758 C132.160093,26.8045758 134.050443,26.0158881 136.091161,24.4385129 C136.220049,25.3028281 136.558378,25.9078487 137.10615,26.2535748 C137.653922,26.5993009 138.357433,26.772164 139.216683,26.772164 C139.990007,26.7505561 140.763332,26.5993009 141.536657,26.3183985 L141.536657,26.3183985 L141.343326,24.2440419 C140.741851,24.4601207 140.280004,24.5681602 139.957786,24.5681602 C139.592604,24.5681602 139.324089,24.4655227 139.152239,24.2602479 C138.980389,24.054973 138.894464,23.7146489 138.894464,23.2392755 L138.894464,23.2392755 L138.894464,14.7797903 C138.894464,12.5109628 138.48095,10.8903718 137.653922,9.91801716 C136.826894,8.94566254 135.489687,8.45948522 133.642299,8.45948522 C130.871219,8.45948522 128.282729,9.66952653 125.876829,12.0896092 L125.876829,12.0896092 L127.069038,13.9046711 C128.207544,12.6946298 129.227903,11.8681284 130.130116,11.4251668 C131.032328,10.9822053 132.020465,10.7607245 133.094528,10.7607245 C135.049321,10.7607245 136.026718,12.0571973 136.026718,14.650143 L136.026718,14.650143 L136.026718,15.914204 L133.642299,16.5948522 C131.794912,17.1350493 130.328817,17.6428344 129.244014,18.1182078 C128.159212,18.5935812 127.316073,19.1931999 126.714598,19.9170639 C126.113123,20.6409279 125.812385,21.5538608 125.812385,22.6558627 C125.812385,23.8442962 126.24201,24.8328567 127.10126,25.6215443 C127.96051,26.410232 129.066794,26.8045758 130.420113,26.8045758 Z M131.032328,24.5681602 C130.323447,24.5681602 129.754194,24.3952971 129.324569,24.049571 C128.894944,23.7038449 128.680132,23.1636479 128.680132,22.42898 C128.680132,21.521449 129.088275,20.7759771 129.904563,20.1925643 C130.72085,19.6091516 132.149353,19.0041309 134.190071,18.3775024 L134.190071,18.3775024 L136.026718,17.8265014 L136.026718,22.3317445 C134.995618,23.0880203 134.088035,23.6498252 133.30397,24.0171592 C132.519904,24.3844932 131.76269,24.5681602 131.032328,24.5681602 Z M146.714571,26.3508103 L146.714571,12.9971401 C147.681227,12.2408643 148.551218,11.6790594 149.324543,11.3117255 C150.097867,10.9443915 150.849711,10.7607245 151.580073,10.7607245 C152.546729,10.7607245 153.228759,11.0524309 153.626162,11.6358437 C154.023565,12.2192564 154.222266,13.1916111 154.222266,14.5529075 L154.222266,14.5529075 L154.222266,26.3508103 L157.090013,26.3508103 L157.090013,14.293613 C157.090013,13.7102002 157.068532,13.2888465 157.025569,13.029552 C157.992225,12.2732761 158.862215,11.7060693 159.63554,11.3279314 C160.408865,10.9497935 161.171449,10.7607245 161.923293,10.7607245 C162.889949,10.7607245 163.571979,11.0524309 163.969382,11.6358437 C164.366785,12.2192564 164.565486,13.1916111 164.565486,14.5529075 L164.565486,14.5529075 L164.565486,26.3508103 L167.433232,26.3508103 L167.433232,14.293613 C167.433232,12.3921195 167.094903,10.9443915 166.418244,9.95042898 C165.741584,8.95646648 164.490302,8.45948522 162.664396,8.45948522 C160.795528,8.45948522 158.787031,9.30219256 156.638907,10.9876072 C156.316688,10.1665078 155.811879,9.53987925 155.124479,9.10772164 C154.437079,8.67556403 153.502645,8.45948522 152.321176,8.45948522 C150.49527,8.45948522 148.551218,9.2589768 146.489018,10.85796 L146.489018,10.85796 L146.070134,9.042898 L143.846825,9.042898 L143.846825,26.3508103 L146.714571,26.3508103 Z M174.866677,34 L174.866677,26.3508103 C175.876296,26.7397521 176.950358,26.9342231 178.088864,26.9342231 C180.731057,26.9342231 182.857701,26.1239276 184.468794,24.5033365 C186.079887,22.8827455 186.885434,20.5058786 186.885434,17.3727359 C186.885434,15.5360661 186.584697,13.9424849 185.983222,12.5919924 C185.381747,11.2414998 184.543978,10.2151255 183.469916,9.5128694 C182.395854,8.81061328 181.149942,8.45948522 179.732179,8.45948522 C177.798867,8.45948522 176.069627,9.11852558 174.544459,10.4366063 L174.544459,10.4366063 L174.22224,8.97807436 L171.998931,8.97807436 L171.998931,34 L174.866677,34 Z M177.959977,24.6978074 C176.821471,24.6978074 175.790371,24.4925326 174.866677,24.0819828 L174.866677,24.0819828 L174.866677,12.4461392 C175.661483,11.8411185 176.407957,11.4035589 177.106097,11.1334604 C177.804238,10.8633619 178.615155,10.7283127 179.538848,10.7283127 C180.78476,10.7283127 181.831971,11.2523038 182.68048,12.300286 C183.52899,13.3482682 183.953244,15.017477 183.953244,17.3079123 C183.953244,19.5983476 183.464546,21.4026057 182.487149,22.7206864 C181.509752,24.0387671 180.000695,24.6978074 177.959977,24.6978074 Z M192.965561,26.3508103 L192.965561,0.42135367 L190.097814,0.42135367 L190.097814,26.3508103 L192.965561,26.3508103 Z M204.458961,26.9342231 C205.812279,26.9342231 207.020599,26.6641246 208.083921,26.1239276 C209.147243,25.5837305 210.108528,24.8274547 210.967778,23.8551001 L210.967778,23.8551001 L209.872235,22.0400381 C209.077429,22.8611376 208.250401,23.509374 207.391151,23.9847474 C206.531901,24.4601207 205.565245,24.6978074 204.491183,24.6978074 C202.729721,24.6978074 201.392513,24.060375 200.47956,22.78551 C199.566607,21.5106451 199.110131,19.8036225 199.110131,17.6644423 C199.110131,17.2971084 199.120871,17.0162059 199.142353,16.821735 L199.142353,16.821735 L210.774447,16.821735 C210.924816,16.0222434 211,15.374007 211,14.8770257 C211,13.558945 210.720744,12.4137274 210.162231,11.4413727 C209.603719,10.4690181 208.825024,9.7289482 207.826146,9.22116301 C206.827268,8.71337782 205.704873,8.45948522 204.458961,8.45948522 C202.676017,8.45948522 201.16159,8.87003495 199.915677,9.69113441 C198.669765,10.5122339 197.740701,11.6250397 197.128486,13.029552 C196.51627,14.4340642 196.210163,16.0006355 196.210163,17.729266 C196.210163,19.4146806 196.51627,20.9542421 197.128486,22.3479504 C197.740701,23.7416587 198.664395,24.8544646 199.899566,25.686368 C201.134738,26.5182714 202.654536,26.9342231 204.458961,26.9342231 Z M208.164476,14.7149666 L199.464571,14.7149666 C199.808271,13.4401017 200.393635,12.4353352 201.220663,11.7006673 C202.047691,10.9659994 203.094902,10.5986654 204.362295,10.5986654 C205.414876,10.5986654 206.311718,10.9281856 207.052821,11.5872259 C207.793924,12.2462663 208.164476,13.202415 208.164476,14.4556721 L208.164476,14.4556721 L208.164476,14.7149666 Z" id="CTBBiosample"></path>
            </g>
        </g>
    </g>
</svg>