<?xml version="1.0" encoding="UTF-8"?>
<svg id="Layer_1" data-name="Layer 1" xmlns="http://www.w3.org/2000/svg" viewBox="0 0 288 38">
  <defs>
    <style>
      .cls-1 {
        fill: #fff;
      }

      .cls-2 {
        fill: #bb0e3d;
      }

      .cls-3 {
        fill: #ba1f40;
      }

      .cls-4 {
        fill: #606061;
      }
    </style>
  </defs>
  <g id="NIH_Luggage_Tag" data-name="NIH Luggage Tag">
    <path class="cls-4" d="m45.05,18.95L36.08,2.8H3.64C1.73,2.8.19,4.35.19,6.26v25.38c0,1.91,1.54,3.46,3.45,3.46h32.44l8.97-16.15Z"/>
    <path class="cls-3" d="m44.15,4.49c-.63-1.04-1.77-1.68-3-1.68h-2.68l9.09,16.15-9.09,16.15h2.68c1.23,0,2.37-.64,3-1.68l8.07-14.47-8.07-14.47Z"/>
    <rect class="cls-1" x="19.33" y="11.77" width="2.39" height="14.36"/>
    <polygon class="cls-1" points="14.54 11.77 14.54 22.3 7.97 11.77 5.57 11.77 5.57 26.13 7.97 26.13 7.97 15.6 14.54 26.13 16.94 26.13 16.94 11.77 14.54 11.77"/>
    <polygon class="cls-1" points="33.09 11.77 33.09 17.76 26.51 17.76 26.51 11.77 24.12 11.77 24.12 26.13 26.51 26.13 26.51 20.15 33.09 20.15 33.09 26.13 35.48 26.13 35.48 11.77 33.09 11.77"/>
  </g>
  <g id="NCI">
    <path class="cls-2" d="m65.56,6.66h1.47v6.61h-1.47l-3.15-4.14v4.14h-1.47v-6.61h1.38l3.24,4.25v-4.25Z"/>
    <path class="cls-2" d="m73.36,13.26l-.61-1.43h-2.77l-.61,1.43h-1.57l2.85-6.6h1.43l2.85,6.61h-1.57Zm-1.99-4.64l-.83,1.92h1.65l-.82-1.92Z"/>
    <path class="cls-2" d="m78.01,7.93v5.33h-1.47v-5.33h-1.87v-1.28h5.22v1.28h-1.87Z"/>
    <path class="cls-2" d="m80.96,6.66h1.47v6.61h-1.47v-6.61Z"/>
    <path class="cls-2" d="m89.62,12.35c-.67.65-1.49.98-2.47.98s-1.8-.33-2.47-.98c-.67-.65-1-1.46-1-2.43s.33-1.78,1-2.43c.67-.65,1.49-.98,2.47-.98s1.8.33,2.47.98c.67.65,1,1.46,1,2.43s-.33,1.78-1,2.43Zm-.5-2.43c0-.59-.19-1.09-.57-1.51-.38-.42-.84-.62-1.39-.62s-1.02.21-1.39.62-.57.92-.57,1.51.19,1.09.57,1.5c.38.41.84.62,1.39.62s1.02-.21,1.39-.62c.38-.41.57-.91.57-1.5Z"/>
    <path class="cls-2" d="m96.49,6.66h1.47v6.61h-1.47l-3.15-4.14v4.14h-1.47v-6.61h1.38l3.24,4.25v-4.25Z"/>
    <path class="cls-2" d="m104.29,13.26l-.61-1.43h-2.77l-.61,1.43h-1.57l2.85-6.6h1.43l2.85,6.61h-1.57Zm-1.99-4.64l-.83,1.92h1.65l-.82-1.92Z"/>
    <path class="cls-2" d="m106.63,13.26v-6.6h1.47v5.29h2.82v1.31h-4.29Z"/>
    <path class="cls-2" d="m117.52,11.96c.72,0,1.32-.29,1.78-.86l.94.97c-.75.84-1.63,1.27-2.65,1.27s-1.86-.32-2.51-.96c-.66-.64-.99-1.45-.99-2.43s.34-1.8,1.01-2.45c.67-.65,1.49-.98,2.46-.98,1.08,0,1.99.41,2.72,1.24l-.92,1.04c-.47-.58-1.05-.87-1.74-.87-.55,0-1.03.18-1.42.54-.39.36-.59.85-.59,1.46s.19,1.11.56,1.48c.37.37.82.56,1.35.56Z"/>
    <path class="cls-2" d="m126.07,13.26l-.61-1.43h-2.77l-.61,1.43h-1.57l2.85-6.6h1.43l2.85,6.61h-1.57Zm-1.99-4.64l-.83,1.92h1.65l-.82-1.92Z"/>
    <path class="cls-2" d="m133.02,6.66h1.47v6.61h-1.47l-3.15-4.14v4.14h-1.47v-6.61h1.38l3.24,4.25v-4.25Z"/>
    <path class="cls-2" d="m139.15,11.96c.72,0,1.32-.29,1.78-.86l.95.97c-.75.84-1.63,1.27-2.65,1.27s-1.86-.32-2.51-.96c-.66-.64-.99-1.45-.99-2.43s.33-1.8,1.01-2.45c.67-.65,1.49-.98,2.46-.98,1.08,0,1.99.41,2.72,1.24l-.92,1.04c-.47-.58-1.05-.87-1.74-.87-.55,0-1.03.18-1.42.54-.39.36-.59.85-.59,1.46s.19,1.11.56,1.48c.37.37.82.56,1.35.56Z"/>
    <path class="cls-2" d="m147.8,6.66v1.31h-3.29v1.36h2.96v1.26h-2.96v1.37h3.39v1.3h-4.87v-6.61h4.76Z"/>
    <path class="cls-2" d="m154.58,8.85c0,1.06-.42,1.74-1.26,2.05l1.67,2.36h-1.81l-1.46-2.11h-1.02v2.11h-1.47v-6.6h2.5c1.03,0,1.76.17,2.2.52s.66.9.66,1.67Zm-1.78.78c.18-.16.27-.42.27-.78s-.09-.6-.28-.73-.52-.2-.99-.2h-1.11v1.96h1.08c.5,0,.85-.08,1.03-.25Z"/>
    <path class="cls-2" d="m158.58,6.66h1.47v6.61h-1.47v-6.61Z"/>
    <path class="cls-2" d="m166.3,6.66h1.47v6.61h-1.47l-3.15-4.14v4.14h-1.47v-6.61h1.38l3.24,4.25v-4.25Z"/>
    <path class="cls-2" d="m170.95,7.98c-.14.12-.21.27-.21.46s.09.34.26.46c.17.11.57.25,1.2.4s1.11.39,1.46.69c.35.31.52.76.52,1.35s-.22,1.07-.67,1.44-1.03.55-1.75.55c-1.05,0-1.99-.39-2.82-1.16l.88-1.08c.71.62,1.37.94,1.98.94.27,0,.48-.06.64-.17.15-.12.23-.27.23-.47s-.08-.36-.25-.47-.49-.23-.97-.35c-.77-.18-1.33-.42-1.69-.71s-.53-.75-.53-1.38.23-1.11.68-1.45c.45-.34,1.01-.51,1.69-.51.44,0,.88.08,1.32.23.44.15.83.37,1.15.64l-.75,1.08c-.57-.43-1.17-.65-1.78-.65-.25,0-.44.06-.58.17Z"/>
    <path class="cls-2" d="m178.17,7.93v5.33h-1.47v-5.33h-1.87v-1.28h5.22v1.28h-1.87Z"/>
    <path class="cls-2" d="m181.12,6.66h1.47v6.61h-1.47v-6.61Z"/>
    <path class="cls-2" d="m187.02,7.93v5.33h-1.47v-5.33h-1.87v-1.28h5.22v1.28h-1.87Z"/>
    <path class="cls-2" d="m191.71,11.56c.25.31.58.46.99.46s.74-.15.99-.46c.24-.31.36-.72.36-1.25v-3.65h1.47v3.69c0,.96-.26,1.69-.79,2.21-.53.51-1.21.77-2.03.77s-1.5-.26-2.04-.77-.8-1.25-.8-2.2v-3.69h1.47v3.65c0,.53.12.95.37,1.25Z"/>
    <path class="cls-2" d="m199.86,7.93v5.33h-1.47v-5.33h-1.87v-1.28h5.22v1.28h-1.87Z"/>
    <path class="cls-2" d="m207.57,6.66v1.31h-3.29v1.36h2.96v1.26h-2.96v1.37h3.39v1.3h-4.87v-6.61h4.76Z"/>
  </g>
  <g>
    <path class="cls-4" d="m60.58,24.95c0-2.53,1.94-4.34,4.56-4.34,1.45,0,2.66.53,3.45,1.49l-1.25,1.15c-.56-.65-1.27-.98-2.11-.98-1.57,0-2.69,1.1-2.69,2.69s1.12,2.69,2.69,2.69c.84,0,1.55-.34,2.11-1l1.25,1.15c-.79.97-2,1.5-3.47,1.5-2.6,0-4.55-1.81-4.55-4.34Z"/>
    <path class="cls-4" d="m76.37,25.45v3.69h-1.87v-3.41c0-1.04-.48-1.52-1.31-1.52-.9,0-1.55.55-1.55,1.74v3.19h-1.87v-8.9h1.87v3.12c.5-.5,1.22-.77,2.05-.77,1.52,0,2.67.89,2.67,2.85Z"/>
    <path class="cls-4" d="m84.42,26.45h-4.88c.18.8.86,1.3,1.85,1.3.68,0,1.18-.2,1.62-.62l1,1.08c-.6.68-1.5,1.04-2.66,1.04-2.23,0-3.68-1.4-3.68-3.32s1.48-3.32,3.44-3.32,3.36,1.27,3.36,3.35c0,.14-.02.35-.04.5Zm-4.91-1.09h3.18c-.13-.82-.74-1.34-1.58-1.34s-1.46.52-1.6,1.34Z"/>
    <path class="cls-4" d="m89.72,22.6v1.73c-.16-.01-.28-.02-.42-.02-1.03,0-1.72.56-1.72,1.8v3.05h-1.87v-6.45h1.79v.85c.46-.62,1.22-.95,2.22-.95Z"/>
    <path class="cls-4" d="m97.43,25.45v3.69h-1.87v-3.41c0-1.04-.48-1.52-1.31-1.52-.9,0-1.55.55-1.55,1.74v3.19h-1.87v-6.45h1.79v.76c.5-.55,1.26-.85,2.13-.85,1.52,0,2.67.89,2.67,2.85Z"/>
    <path class="cls-4" d="m98.72,25.92c0-1.94,1.5-3.32,3.55-3.32s3.54,1.38,3.54,3.32-1.49,3.32-3.54,3.32-3.55-1.38-3.55-3.32Zm5.19,0c0-1.12-.71-1.79-1.64-1.79s-1.66.67-1.66,1.79.72,1.79,1.66,1.79,1.64-.67,1.64-1.79Z"/>
    <path class="cls-4" d="m114.09,25.92c0,2.03-1.4,3.32-3.21,3.32-.86,0-1.56-.28-2.03-.84v.74h-1.79v-8.9h1.87v3.13c.48-.53,1.14-.78,1.94-.78,1.81,0,3.21,1.3,3.21,3.32Zm-1.89,0c0-1.12-.71-1.79-1.64-1.79s-1.64.67-1.64,1.79.71,1.79,1.64,1.79,1.64-.67,1.64-1.79Z"/>
    <path class="cls-4" d="m121.56,22.69l-2.91,6.85c-.62,1.56-1.51,2.03-2.67,2.03-.66,0-1.38-.22-1.8-.59l.68-1.33c.29.25.68.41,1.06.41.52,0,.8-.23,1.05-.8l.02-.06-2.79-6.5h1.93l1.81,4.38,1.82-4.38h1.8Z"/>
    <path class="cls-4" d="m122.33,20.25h1.87v8.9h-1.87v-8.9Z"/>
    <path class="cls-4" d="m131.21,22.33h-2.69v-1.58h7.32v1.58h-2.69v6.81h-1.94v-6.81Z"/>
    <path class="cls-4" d="m136.39,20.75c0-.59.47-1.04,1.16-1.04s1.16.43,1.16,1.01c0,.62-.47,1.08-1.16,1.08s-1.16-.46-1.16-1.04Zm.23,1.94h1.87v6.45h-1.87v-6.45Z"/>
    <path class="cls-4" d="m139.6,28.55l.62-1.34c.58.37,1.45.62,2.24.62.86,0,1.19-.23,1.19-.59,0-1.06-3.9.02-3.9-2.55,0-1.22,1.1-2.09,2.99-2.09.89,0,1.87.2,2.48.56l-.62,1.33c-.64-.36-1.27-.48-1.86-.48-.84,0-1.2.26-1.2.6,0,1.1,3.9.04,3.9,2.58,0,1.2-1.12,2.05-3.05,2.05-1.09,0-2.2-.3-2.79-.7Z"/>
    <path class="cls-4" d="m145.97,28.55l.62-1.34c.58.37,1.45.62,2.24.62.86,0,1.19-.23,1.19-.59,0-1.06-3.9.02-3.9-2.55,0-1.22,1.1-2.09,2.99-2.09.89,0,1.87.2,2.48.56l-.62,1.33c-.63-.36-1.27-.48-1.86-.48-.84,0-1.2.26-1.2.6,0,1.1,3.9.04,3.9,2.58,0,1.2-1.12,2.05-3.05,2.05-1.09,0-2.19-.3-2.79-.7Z"/>
    <path class="cls-4" d="m159.47,22.69v6.45h-1.77v-.77c-.49.56-1.21.86-2,.86-1.62,0-2.76-.91-2.76-2.9v-3.65h1.87v3.37c0,1.08.48,1.56,1.31,1.56s1.49-.55,1.49-1.74v-3.19h1.87Z"/>
    <path class="cls-4" d="m167.5,26.45h-4.88c.18.8.86,1.3,1.85,1.3.68,0,1.17-.2,1.62-.62l1,1.08c-.6.68-1.5,1.04-2.66,1.04-2.23,0-3.68-1.4-3.68-3.32s1.47-3.32,3.44-3.32,3.36,1.27,3.36,3.35c0,.14-.02.35-.04.5Zm-4.91-1.09h3.18c-.13-.82-.74-1.34-1.58-1.34s-1.46.52-1.59,1.34Z"/>
    <path class="cls-4" d="m180.01,26.86c0,1.45-1.15,2.29-3.36,2.29h-4.34v-8.4h4.1c2.1,0,3.18.88,3.18,2.18,0,.84-.43,1.49-1.12,1.85.94.3,1.54,1.02,1.54,2.08Zm-5.77-4.64v1.98h1.93c.95,0,1.46-.34,1.46-1s-.52-.98-1.46-.98h-1.93Zm3.81,4.44c0-.71-.54-1.04-1.55-1.04h-2.27v2.07h2.27c1.01,0,1.55-.31,1.55-1.03Z"/>
    <path class="cls-4" d="m187.07,25.47v3.68h-1.75v-.8c-.35.59-1.02.9-1.97.9-1.51,0-2.41-.84-2.41-1.95s.8-1.93,2.77-1.93h1.49c0-.8-.48-1.27-1.49-1.27-.68,0-1.39.23-1.86.6l-.67-1.31c.71-.5,1.75-.78,2.78-.78,1.97,0,3.11.91,3.11,2.87Zm-1.87,1.64v-.66h-1.28c-.88,0-1.15.32-1.15.76,0,.47.4.78,1.06.78.62,0,1.16-.29,1.38-.88Z"/>
    <path class="cls-4" d="m195.36,25.45v3.69h-1.87v-3.41c0-1.04-.48-1.52-1.31-1.52-.9,0-1.55.55-1.55,1.74v3.19h-1.87v-6.45h1.79v.76c.5-.55,1.26-.85,2.13-.85,1.52,0,2.67.89,2.67,2.85Z"/>
    <path class="cls-4" d="m199.83,26.62l-.9.89v1.64h-1.87v-8.9h1.87v5.04l2.74-2.59h2.23l-2.69,2.73,2.93,3.72h-2.27l-2.04-2.53Z"/>
  </g>
</svg>